<?xml version="1.0" encoding="UTF-8"?>
<svg id="Capa_1" data-name="Capa 1" xmlns="http://www.w3.org/2000/svg" viewBox="0 0 119.06 119.06">
  <defs>
    <style>
      .cls-1 {
        fill: #fff;
      }

      .cls-2 {
        fill: #348200;
        fill-rule: evenodd;
      }
    </style>
  </defs>
  <path class="cls-2" d="M59.53,0c32.88,0,59.53,26.65,59.53,59.53s-26.65,59.53-59.53,59.53S0,92.4,0,59.53,26.65,0,59.53,0"/>
  <path class="cls-1" d="M23.14,65.19c-3.62-3.56-3.67-9.37-.11-12.99,3.56-3.62,9.37-3.67,12.99-.11l14.39,14.17,32.5-32.91c3.56-3.62,9.37-3.67,12.99-.11,3.62,3.56,3.67,9.37.11,12.99l-38.96,39.45c-3.56,3.62-9.37,3.67-12.99.11l-20.92-20.61Z"/>
</svg>